Coordinates
version=1
nRows=43
nColumns=12
inDegrees=yes

Units are S.I. units (second, meters, Newtons, ...)
Angles are in degrees

endheader
time	SC_y	SC_z	SC_x	AC_y	AC_z	AC_x	GH_y	GH_z	GH_yy	EL_x	PS_y
       0.0              -36.17          22.22          58.76          36.74          3.062         -9.977         -97.39         -17.22         -151.2          53.14          132.1
   0.04198              -36.17          22.22          58.75          36.74           3.06         -9.978          -97.4         -17.21         -151.2          53.14          132.1
   0.08395              -36.17          22.22          58.75          36.74          3.058         -9.979          -97.4         -17.21         -151.2          53.14          132.1
    0.1259              -36.17          22.22          58.74          36.74          3.056          -9.98         -97.41          -17.2         -151.1          53.14          132.1
    0.1679              -36.17          22.23          58.73          36.74          3.053         -9.982         -97.41          -17.2         -151.1          53.13          132.1
    0.2099              -36.18          22.23          58.72          36.74          3.051         -9.984         -97.42         -17.19         -151.1          53.13          132.0
    0.2519              -36.18          22.23          58.71          36.74          3.048         -9.985         -97.43         -17.19         -151.0          53.12          132.0
    0.2938              -36.18          22.23          58.71          36.74          3.045         -9.987         -97.43         -17.18         -151.0          53.12          132.0
    0.3358              -36.18          22.23           58.7          36.74          3.042         -9.989         -97.44         -17.18         -151.0          53.12          132.0
    0.3778              -36.19          22.24          58.69          36.74          3.039         -9.991         -97.45         -17.17         -150.9          53.11          132.0
    0.4198              -36.19          22.24          58.67          36.74          3.035         -9.993         -97.46         -17.16         -150.9          53.11          132.0
    0.4617              -36.19          22.24          58.66          36.74          3.031         -9.996         -97.46         -17.16         -150.9           53.1          132.0
    0.5037               -36.2          22.24          58.65          36.74          3.027         -9.998         -97.47         -17.15         -150.8           53.1          131.9
    0.5457               -36.2          22.25          58.64          36.74          3.023          -10.0         -97.48         -17.14         -150.8          53.09          131.9
    0.5877               -36.2          22.25          58.62          36.74          3.018          -10.0          -97.5         -17.13         -150.7          53.08          131.9
    0.6296              -36.21          22.26           58.6          36.74          3.013         -10.01         -97.51         -17.12         -150.7          53.07          131.9
    0.6716              -36.21          22.26          58.59          36.74          3.007         -10.01         -97.52         -17.11         -150.6          53.07          131.8
    0.7136              -36.22          22.26          58.57          36.74          3.001         -10.01         -97.54          -17.1         -150.5          53.06          131.8
    0.7556              -36.23          22.27          58.54          36.74          2.994         -10.02         -97.55         -17.08         -150.5          53.05          131.8
    0.7976              -36.23          22.27          58.52          36.74          2.986         -10.02         -97.57         -17.07         -150.4          53.04          131.8
    0.8395              -36.24          22.28           58.5          36.74          2.978         -10.03         -97.59         -17.05         -150.3          53.03          131.7
    0.8815              -36.25          22.29          58.47          36.74          2.969         -10.03         -97.61         -17.04         -150.2          53.01          131.7
    0.9235              -36.25          22.29          58.44          36.75          2.959         -10.04         -97.63         -17.02         -150.1           53.0          131.6
    0.9655              -36.26           22.3           58.4          36.75          2.948         -10.05         -97.66          -17.0         -150.0          52.98          131.6
     1.007              -36.27          22.31          58.36          36.75          2.936         -10.05         -97.69         -16.97         -149.8          52.97          131.5
     1.049              -36.29          22.32          58.32          36.75          2.922         -10.06         -97.72         -16.95         -149.7          52.95          131.5
     1.091               -36.3          22.33          58.27          36.75          2.907         -10.07         -97.76         -16.92         -149.5          52.92          131.4
     1.133              -36.31          22.34          58.22          36.75           2.89         -10.08          -97.8         -16.88         -149.3           52.9          131.3
     1.175              -36.33          22.36          58.16          36.75          2.871          -10.1         -97.84         -16.85         -149.1          52.87          131.2
     1.217              -36.35          22.37          58.09          36.76          2.848         -10.11         -97.89          -16.8         -148.9          52.84          131.1
     1.259              -36.37          22.39          58.01          36.76          2.823         -10.12         -97.95         -16.76         -148.6          52.81          131.0
     1.301              -36.39          22.41          57.92          36.76          2.794         -10.14         -98.02          -16.7         -148.3          52.76          130.9
     1.343              -36.42          22.44          57.81          36.77          2.761         -10.16          -98.1         -16.64         -147.9          52.72          130.8
     1.385              -36.46          22.47          57.69          36.77          2.722         -10.19         -98.19         -16.56         -147.5          52.66          130.6
     1.427              -36.49           22.5          57.55          36.77          2.677         -10.22         -98.29         -16.47         -147.0           52.6          130.4
     1.469              -36.54          22.54          57.38          36.78          2.624         -10.25         -98.42         -16.37         -146.4          52.52          130.1
     1.511              -36.59          22.58          57.18          36.79           2.56         -10.29         -98.57         -16.25         -145.7          52.43          129.9
     1.553              -36.66          22.64          56.94          36.79          2.484         -10.34         -98.75          -16.1         -144.9          52.32          129.5
     1.595              -36.74          22.71          56.65           36.8          2.392         -10.39         -98.96         -15.92         -143.9          52.19          129.1
     1.637              -36.83          22.79           56.3          36.82          2.279         -10.46         -99.23         -15.71         -142.7          52.03          128.6
     1.679              -36.95          22.89          55.86          36.83           2.14         -10.55         -99.55         -15.44         -141.2          51.83          128.0
     1.721               -37.1          23.01          55.32          36.85          1.967         -10.66         -99.96          -15.1         -139.3          51.59          127.2
     1.763              -37.28          23.17          54.63          36.87          1.749         -10.79         -100.5         -14.68         -136.9          51.28          126.3
